<svg width="292" height="82" viewBox="0 0 292 82" fill="none" xmlns="http://www.w3.org/2000/svg">
<path d="M126.568 11.474V43H124.434C124.097 43 123.811 42.9413 123.576 42.824C123.356 42.7067 123.136 42.5087 122.916 42.23L104.678 18.47C104.707 18.8367 104.729 19.196 104.744 19.548C104.759 19.9 104.766 20.23 104.766 20.538V43H101.026V11.474H103.226C103.417 11.474 103.578 11.4887 103.71 11.518C103.842 11.5327 103.959 11.5693 104.062 11.628C104.165 11.672 104.267 11.7453 104.37 11.848C104.473 11.936 104.583 12.0533 104.7 12.2L122.938 35.938C122.909 35.5567 122.879 35.19 122.85 34.838C122.835 34.4713 122.828 34.1267 122.828 33.804V11.474H126.568ZM152.416 20.714L139.986 49.578C139.854 49.8713 139.685 50.106 139.48 50.282C139.289 50.458 138.989 50.546 138.578 50.546H135.674L139.744 41.702L130.548 20.714H133.936C134.273 20.714 134.537 20.802 134.728 20.978C134.933 21.1393 135.073 21.3227 135.146 21.528L141.108 35.564C141.343 36.18 141.541 36.8253 141.702 37.5C141.907 36.8107 142.127 36.158 142.362 35.542L148.148 21.528C148.236 21.2933 148.383 21.1027 148.588 20.956C148.808 20.7947 149.05 20.714 149.314 20.714H152.416ZM167.524 32.968C165.72 33.0267 164.18 33.1733 162.904 33.408C161.642 33.628 160.608 33.9213 159.802 34.288C159.01 34.6547 158.43 35.0873 158.064 35.586C157.712 36.0847 157.536 36.642 157.536 37.258C157.536 37.8447 157.631 38.3507 157.822 38.776C158.012 39.2013 158.269 39.5533 158.592 39.832C158.929 40.096 159.318 40.294 159.758 40.426C160.212 40.5433 160.696 40.602 161.21 40.602C161.899 40.602 162.53 40.536 163.102 40.404C163.674 40.2573 164.209 40.052 164.708 39.788C165.221 39.524 165.705 39.2087 166.16 38.842C166.629 38.4753 167.084 38.0573 167.524 37.588V32.968ZM154.874 23.86C156.106 22.672 157.433 21.7847 158.856 21.198C160.278 20.6113 161.855 20.318 163.586 20.318C164.832 20.318 165.94 20.5233 166.908 20.934C167.876 21.3447 168.69 21.9167 169.35 22.65C170.01 23.3833 170.508 24.2707 170.846 25.312C171.183 26.3533 171.352 27.4973 171.352 28.744V43H169.614C169.232 43 168.939 42.9413 168.734 42.824C168.528 42.692 168.367 42.4427 168.25 42.076L167.81 39.964C167.223 40.5067 166.651 40.9907 166.094 41.416C165.536 41.8267 164.95 42.1787 164.334 42.472C163.718 42.7507 163.058 42.9633 162.354 43.11C161.664 43.2713 160.894 43.352 160.044 43.352C159.178 43.352 158.364 43.2347 157.602 43C156.839 42.7507 156.172 42.384 155.6 41.9C155.042 41.416 154.595 40.8073 154.258 40.074C153.935 39.326 153.774 38.446 153.774 37.434C153.774 36.554 154.016 35.7107 154.5 34.904C154.984 34.0827 155.768 33.3567 156.854 32.726C157.939 32.0953 159.354 31.582 161.1 31.186C162.845 30.7753 164.986 30.5407 167.524 30.482V28.744C167.524 27.0133 167.15 25.708 166.402 24.828C165.654 23.9333 164.561 23.486 163.124 23.486C162.156 23.486 161.342 23.6107 160.682 23.86C160.036 24.0947 159.472 24.366 158.988 24.674C158.518 24.9673 158.108 25.2387 157.756 25.488C157.418 25.7227 157.081 25.84 156.744 25.84C156.48 25.84 156.252 25.774 156.062 25.642C155.871 25.4953 155.71 25.3193 155.578 25.114L154.874 23.86ZM181.013 23.948C181.497 23.4053 182.01 22.914 182.553 22.474C183.096 22.034 183.668 21.66 184.269 21.352C184.885 21.0293 185.53 20.7873 186.205 20.626C186.894 20.45 187.635 20.362 188.427 20.362C189.644 20.362 190.715 20.5673 191.639 20.978C192.578 21.374 193.355 21.946 193.971 22.694C194.602 23.4273 195.078 24.3147 195.401 25.356C195.724 26.3973 195.885 27.5487 195.885 28.81V43H191.947V28.81C191.947 27.1233 191.558 25.818 190.781 24.894C190.018 23.9553 188.852 23.486 187.283 23.486C186.124 23.486 185.039 23.7647 184.027 24.322C183.03 24.8793 182.106 25.6347 181.255 26.588V43H177.317V20.714H179.671C180.228 20.714 180.573 20.9853 180.705 21.528L181.013 23.948ZM205.79 10.594V29.668H206.802C207.095 29.668 207.337 29.6313 207.528 29.558C207.733 29.47 207.946 29.3013 208.166 29.052L215.206 21.506C215.411 21.2567 215.624 21.066 215.844 20.934C216.079 20.7873 216.387 20.714 216.768 20.714H220.31L212.104 29.448C211.708 29.9467 211.283 30.3353 210.828 30.614C211.092 30.79 211.327 30.9953 211.532 31.23C211.752 31.45 211.957 31.7067 212.148 32L220.86 43H217.362C217.025 43 216.731 42.9487 216.482 42.846C216.247 42.7287 216.042 42.5233 215.866 42.23L208.54 33.1C208.32 32.792 208.1 32.594 207.88 32.506C207.675 32.4033 207.352 32.352 206.912 32.352H205.79V43H201.852V10.594H205.79ZM237.866 29.426C237.866 28.5167 237.734 27.688 237.47 26.94C237.22 26.1773 236.846 25.5247 236.348 24.982C235.864 24.4247 235.27 23.9993 234.566 23.706C233.862 23.398 233.062 23.244 232.168 23.244C230.29 23.244 228.802 23.794 227.702 24.894C226.616 25.9793 225.942 27.49 225.678 29.426H237.866ZM241.034 39.876C240.55 40.4627 239.97 40.976 239.296 41.416C238.621 41.8413 237.895 42.1933 237.118 42.472C236.355 42.7507 235.563 42.956 234.742 43.088C233.92 43.2347 233.106 43.308 232.3 43.308C230.76 43.308 229.337 43.0513 228.032 42.538C226.741 42.01 225.619 41.2473 224.666 40.25C223.727 39.238 222.994 37.9913 222.466 36.51C221.938 35.0287 221.674 33.3273 221.674 31.406C221.674 29.8513 221.908 28.3993 222.378 27.05C222.862 25.7007 223.551 24.5347 224.446 23.552C225.34 22.5547 226.433 21.7773 227.724 21.22C229.014 20.648 230.466 20.362 232.08 20.362C233.414 20.362 234.646 20.5893 235.776 21.044C236.92 21.484 237.902 22.1293 238.724 22.98C239.56 23.816 240.212 24.8573 240.682 26.104C241.151 27.336 241.386 28.744 241.386 30.328C241.386 30.944 241.32 31.3547 241.188 31.56C241.056 31.7653 240.806 31.868 240.44 31.868H225.546C225.59 33.276 225.78 34.5007 226.118 35.542C226.47 36.5833 226.954 37.456 227.57 38.16C228.186 38.8493 228.919 39.37 229.77 39.722C230.62 40.0593 231.574 40.228 232.63 40.228C233.612 40.228 234.456 40.118 235.16 39.898C235.878 39.6633 236.494 39.414 237.008 39.15C237.521 38.886 237.946 38.644 238.284 38.424C238.636 38.1893 238.936 38.072 239.186 38.072C239.508 38.072 239.758 38.1967 239.934 38.446L241.034 39.876ZM252.866 43.352C251.106 43.352 249.749 42.8607 248.796 41.878C247.857 40.8953 247.388 39.48 247.388 37.632V23.992H244.704C244.469 23.992 244.271 23.926 244.11 23.794C243.949 23.6473 243.868 23.4273 243.868 23.134V21.572L247.52 21.11L248.422 14.224C248.466 14.004 248.561 13.828 248.708 13.696C248.869 13.5493 249.075 13.476 249.324 13.476H251.304V21.154H257.75V23.992H251.304V37.368C251.304 38.3067 251.531 39.0033 251.986 39.458C252.441 39.9127 253.027 40.14 253.746 40.14C254.157 40.14 254.509 40.0887 254.802 39.986C255.11 39.8687 255.374 39.744 255.594 39.612C255.814 39.48 255.997 39.3627 256.144 39.26C256.305 39.1427 256.445 39.084 256.562 39.084C256.767 39.084 256.951 39.2087 257.112 39.458L258.256 41.328C257.581 41.9587 256.767 42.4573 255.814 42.824C254.861 43.176 253.878 43.352 252.866 43.352Z" fill="white"/>
<path fill-rule="evenodd" clip-rule="evenodd" d="M113.863 48.8636H100.679V82H113.863V48.8636ZM219.335 48.8636H210.546V82H219.335V48.8636ZM118.258 48.8636H122.652V82H118.258V48.8636ZM192.967 48.8636H184.178V82H192.967V48.8636ZM223.729 48.8636H232.519V82H223.729V48.8636ZM179.783 48.8636H166.599V82H179.783V48.8636ZM245.703 48.8636H258.887V82H245.703V48.8636ZM153.415 48.8636H144.626V82H153.415V48.8636ZM157.81 48.8636H162.204V82H157.81V48.8636ZM197.362 48.8636H192.967V82H197.362V48.8636ZM133.792 56.2273H141.151V82H133.792V56.2273ZM206.151 48.8636H201.756V82H206.151V48.8636ZM127.047 48.8636H131.442V82H127.047V48.8636ZM241.308 48.8636H236.913V82H241.308V48.8636Z" fill="white"/>
<rect x="266.245" y="15.7273" width="11.0377" height="51.5455" fill="white"/>
<rect x="266.245" y="70.9546" width="11.0377" height="11.0455" fill="white"/>
<path fill-rule="evenodd" clip-rule="evenodd" d="M78 26.5574V6L59.0726 26.5574H18.9274L0 6V26.5573V81.9999H77.9255V26.5573L78 26.5574ZM16.5906 54.8293L28.2493 48.8192V47.7128L16.5906 41.7175V43.6163C16.5906 43.7858 16.6308 43.9352 16.7113 44.0648C16.7917 44.1844 16.9325 44.2941 17.1336 44.3937L23.9055 47.8025C24.2977 48.0018 24.7502 48.1564 25.263 48.266C25.0116 48.3258 24.7703 48.3955 24.539 48.4753C24.3178 48.545 24.1067 48.6348 23.9055 48.7444L17.1336 52.1383C16.9325 52.2379 16.7917 52.3525 16.7113 52.4822C16.6308 52.6117 16.5906 52.7562 16.5906 52.9156V54.8293ZM52.2693 48.0717C52.5006 47.9919 52.7168 47.9022 52.9179 47.8025L59.6898 44.3937C59.8909 44.2941 60.0317 44.1844 60.1122 44.0648C60.1926 43.9352 60.2328 43.7858 60.2328 43.6163V41.7175L48.5742 47.7128V48.8192L60.2328 54.8293V52.9156C60.2328 52.7562 60.1926 52.6117 60.1122 52.4822C60.0317 52.3525 59.8909 52.2379 59.6898 52.1383L52.9179 48.7444C52.7168 48.6348 52.5006 48.545 52.2693 48.4753C52.0481 48.3955 51.8068 48.3258 51.5454 48.266C51.8068 48.2162 52.0481 48.1514 52.2693 48.0717Z" fill="white"/>
</svg>
